<svg width="25" height="25" viewBox="0 0 25 25" fill="none" xmlns="http://www.w3.org/2000/svg">
<path d="M22.4967 6.30081C21.7267 6.65081 20.8967 6.88081 20.0367 6.99081C20.9167 6.46081 21.5967 5.62081 21.9167 4.61081C21.0867 5.11081 20.1667 5.46081 19.1967 5.66081C18.4067 4.80081 17.2967 4.30081 16.0367 4.30081C13.6867 4.30081 11.7667 6.22081 11.7667 8.59081C11.7667 8.93081 11.8067 9.26081 11.8767 9.57081C8.31666 9.39081 5.14666 7.68081 3.03666 5.09081C2.66666 5.72081 2.45666 6.46081 2.45666 7.24081C2.45666 8.73081 3.20666 10.0508 4.36666 10.8008C3.65666 10.8008 2.99666 10.6008 2.41666 10.3008C2.41666 10.3008 2.41666 10.3008 2.41666 10.3308C2.41666 12.4108 3.89666 14.1508 5.85666 14.5408C5.49666 14.6408 5.11666 14.6908 4.72666 14.6908C4.45666 14.6908 4.18666 14.6608 3.92666 14.6108C4.46666 16.3008 6.03666 17.5608 7.92666 17.5908C6.46666 18.7508 4.61666 19.4308 2.59666 19.4308C2.25666 19.4308 1.91666 19.4108 1.57666 19.3708C3.47666 20.5908 5.73666 21.3008 8.15666 21.3008C16.0367 21.3008 20.3667 14.7608 20.3667 9.09081C20.3667 8.90081 20.3667 8.72081 20.3567 8.53081C21.1967 7.93081 21.9167 7.17081 22.4967 6.30081Z" fill="white"/>
</svg>
